<svg version="1.1" xmlns="http://www.w3.org/2000/svg" xmlns:xlink="http://www.w3.org/1999/xlink" width="720px" height="720px" viewBox="0,0,256,256"><g fill="#ffffff" fill-rule="nonzero" stroke="none" stroke-width="1" stroke-linecap="butt" stroke-linejoin="miter" stroke-miterlimit="10" stroke-dasharray="" stroke-dashoffset="0" font-family="none" font-weight="none" font-size="none" text-anchor="none" style="mix-blend-mode: normal"><g transform="translate(-0.90639,0.69414) scale(0.35556,0.35556)"><path d="M350.4,9.6c-208.6,10.9 -346.3,174.5 -337.6,380.8c3.8,90.3 40.1,168 48.7,253.7c2.2,22.2 -4.2,49.6 21.4,59.3c31.5,11.9 79.8,-8.1 106.2,-26.4c9,-6.1 17.6,-13.2 24.2,-22c27.3,18.1 53.2,35.6 85.7,43.4c143.1,34.3 299.9,-44.2 369.6,-170.3c131,-236.9 -46.1,-532.7 -318.2,-518.5M269.4,504c-11.3,8.8 -22.2,20.8 -34.7,27.7c-18.1,9.7 -23.7,-0.4 -30.5,-16.4c-21.4,-50.9 -24,-137.6 -11.5,-190.9c16.8,-72.5 72.9,-136.3 150,-143.1c78,-6.9 150.4,32.7 183.1,104.2c72.4,159.1 -112.9,316.2 -256.4,218.6z"></path></g></g></svg>